# xmcd
#
# Track frame offsets:
#	150
#	15679
#	34260
#	46845
#	66244
#	85098
#	99698
#	115508
#	131102
#	144610
#
# Disc length: 2160 seconds
#
# Revision: 0
# Processed by: cddbd v1.5.2PL0 Copyright (c) Steve Scherf et al.
# Submitted via: EZCDAudioConverter 1.3.4.1
#
DISCID=85086e0a
DTITLE=Tomasz Szwed  - Tam jeszcze jest dobrze
DYEAR=2002
DGENRE=Country
TTITLE0=Tomasz Szwed  - Zobacz ten świat
TTITLE1=Tomasz Szwed  - Tam jeszcze jest dobrze
TTITLE2=Tomasz Szwed - Domowe wino
TTITLE3=Tomasz Szwed  - Moja country girl
TTITLE4=Tomasz Szwed  - Gdzieś tam
TTITLE5=Tomasz Szwed  - Ciepłe piwo i zimne kobiety
TTITLE6=Tomasz Szwed  - Kiedy pada deszcz
TTITLE7=Tomasz Szwed  - Siedzę na ganku
TTITLE8=Tomasz Szwed  - Nie oglądaj się za siebie
TTITLE9=Tomasz Szwed  - Byle doczekać do końca świata
EXTD=
EXTT0=
EXTT1=
EXTT2=
EXTT3=
EXTT4=
EXTT5=
EXTT6=
EXTT7=
EXTT8=
EXTT9=
PLAYORDER=
